PathFileType	4	(X/Y/Z)	/Users/gattia/Dropbox/phd_data/bike_study/processing_scripts/../mocap_collections/p017/static_002_dig-bike_study_lower_sept.17.2019_static_func_knee_and_ankle/marker_data.trc
DataRate	CameraRate	NumFrames	NumMarkers	Units	OrigDataRate	OrigDataStartFrame	OrigNumFrames
112.5	112.5	4	107	mm	112.5	85	339
Frame#	Time	Head_Front			Head_R			Head_L			Head_back			Head_top			Arm_R_1			Arm_R_2			Arm_R_3			Arm_R_4			Elbow_R_Lat			Elbow_R_Med			Forearm_R_1			Forearm_R_2			Forearm_R_3			Forearm_R_4			Rad_styl_R			Ul_styl_R			Dig_R_1			Dig_R_3			Dig_R_5			Arm_L_1			Arm_L_2			Arm_L_3			Arm_L_4			Elbow_L_Lat			Elbow_L_Med			Forearm_L_1			Forearm_L_2			Forearm_L_3			Forearm_L_4			Rad_styl_L			Ul_styl_L			Dig_L_1			Dig_L_3			Dig_L_5			xiphoid			sternal_notch			Acr_R			Acr_L			C7			T8			ASIS_R			ASIS_L			PSIS_R			PSIS_L			GT_R			Thigh_R_1			Thigh_R_2			Thigh_R_3			Thigh_R_4			Knee_R_L_Cond			Knee_R_M_Cond			GT_L			Thigh_L_1			Thigh_L_2			Thigh_L_3			Thigh_L_4			Knee_L_L_Cond			Knee_L_M_Cond			Tib_Tib_R			Shank_R_1			Shank_R_2			Shank_R_3			Shank_R_4			Ankle_R_L_Mal			Ankle_R_M_Mal			Tib_Tub_L			Shank_L_1			Shank_L_2			Shank_L_3			Shank_L_4			Ankle_L_L_Mal			Ankle_L_M_Mal			Foot_R_MH_1_Top			Foot_R_MH_5_Top			Foot_R_Calc			Foot_R_Center			Foot_L_MH_1_Top			Foot_L_MH_5_Top			Foot_L_Calc			Foot_L_Center			right_hjc			left_hjc			mid_hjc			mid_pelvis			mid_asis			mid_psis			right_kjc			left_kjc			right_ajc			left_ajc			right_met_1_floor			left_met_1_floor			right_met_5_floor			left_met_5_floor			right_calc_floor			left_calc_floor			right_mid_met_floor			left_mid_met_floor			right_ajc_floor			left_ajc_floor			right_sjc			left_sjc			right_ejc			left_ejc			right_wjc			left_wjc			
		X1	Y1	Z1	X2	Y2	Z2	X3	Y3	Z3	X4	Y4	Z4	X5	Y5	Z5	X6	Y6	Z6	X7	Y7	Z7	X8	Y8	Z8	X9	Y9	Z9	X10	Y10	Z10	X11	Y11	Z11	X12	Y12	Z12	X13	Y13	Z13	X14	Y14	Z14	X15	Y15	Z15	X16	Y16	Z16	X17	Y17	Z17	X18	Y18	Z18	X19	Y19	Z19	X20	Y20	Z20	X21	Y21	Z21	X22	Y22	Z22	X23	Y23	Z23	X24	Y24	Z24	X25	Y25	Z25	X26	Y26	Z26	X27	Y27	Z27	X28	Y28	Z28	X29	Y29	Z29	X30	Y30	Z30	X31	Y31	Z31	X32	Y32	Z32	X33	Y33	Z33	X34	Y34	Z34	X35	Y35	Z35	X36	Y36	Z36	X37	Y37	Z37	X38	Y38	Z38	X39	Y39	Z39	X40	Y40	Z40	X41	Y41	Z41	X42	Y42	Z42	X43	Y43	Z43	X44	Y44	Z44	X45	Y45	Z45	X46	Y46	Z46	X47	Y47	Z47	X48	Y48	Z48	X49	Y49	Z49	X50	Y50	Z50	X51	Y51	Z51	X52	Y52	Z52	X53	Y53	Z53	X54	Y54	Z54	X55	Y55	Z55	X56	Y56	Z56	X57	Y57	Z57	X58	Y58	Z58	X59	Y59	Z59	X60	Y60	Z60	X61	Y61	Z61	X62	Y62	Z62	X63	Y63	Z63	X64	Y64	Z64	X65	Y65	Z65	X66	Y66	Z66	X67	Y67	Z67	X68	Y68	Z68	X69	Y69	Z69	X70	Y70	Z70	X71	Y71	Z71	X72	Y72	Z72	X73	Y73	Z73	X74	Y74	Z74	X75	Y75	Z75	X76	Y76	Z76	X77	Y77	Z77	X78	Y78	Z78	X79	Y79	Z79	X80	Y80	Z80	X81	Y81	Z81	X82	Y82	Z82	X83	Y83	Z83	X84	Y84	Z84	X85	Y85	Z85	X86	Y86	Z86	X87	Y87	Z87	X88	Y88	Z88	X89	Y89	Z89	X90	Y90	Z90	X91	Y91	Z91	X92	Y92	Z92	X93	Y93	Z93	X94	Y94	Z94	X95	Y95	Z95	X96	Y96	Z96	X97	Y97	Z97	X98	Y98	Z98	X99	Y99	Z99	X100	Y100	Z100	X101	Y101	Z101	X102	Y102	Z102	X103	Y103	Z103	X104	Y104	Z104	X105	Y105	Z105	X106	Y106	Z106	X107	Y107	Z107	

85	  0.746667	344.775017	1788.550031	320.127474	156.241334	1756.249676	374.532291	239.425185	1756.150486	180.657964	105.286817	1693.574768	267.201621	216.904702	1857.616438	286.895872	107.961611	1327.790965	513.079599	114.868505	1350.496018	547.804950	113.794129	1327.185896	563.391324	106.745025	1303.563973	528.455969	105.653604	1237.157020	596.691415	179.091168	1210.700461	562.782064	106.935905	1140.060883	698.393862	142.948210	1115.508461	676.291705	147.404408	1101.405823	700.104746	111.052463	1125.204953	721.059544	162.260928	1127.720565	824.320414	128.655053	1064.955238	791.582439	176.953663	1127.012354	889.514687	113.563065	1060.279247	889.558017	123.245154	1024.744476	859.611538	187.767516	1340.056607	-37.243951	150.637852	1334.444064	-18.611018	148.288799	1310.182542	-31.589394	184.811559	1315.372694	-51.194860	142.520213	1229.092591	-60.538256	191.997362	1196.629674	 -7.073257	158.411840	1170.734523	-172.576792	168.979172	1130.031135	-147.241660	177.404605	1117.421156	-170.871715	167.010460	1157.828413	-196.010378	239.397367	1147.956540	-288.442876	208.122140	1080.632214	-260.422359	287.893083	1139.332721	-351.670759	222.132879	1078.432863	-375.968903	225.906184	1037.851293	-349.362141	315.026513	1295.256661	278.015568	275.785852	1491.302881	279.642638	158.697004	1534.056496	443.709708	198.364893	1527.804561	 77.651619	138.126482	1554.397872	275.515195	 93.604172	1362.570485	272.258408	278.472910	1032.537612	416.045588	292.058865	1024.931145	145.685212	 99.124247	1066.745896	323.150893	103.448491	1072.236928	202.944458	205.151565	950.624831	464.439860	185.420187	779.253757	470.640808	228.056790	776.507412	475.367849	226.070649	746.101712	474.966591	183.328973	747.587735	470.808473	193.854143	521.995719	440.181964	230.002558	496.058203	349.561626	207.541264	923.317220	 89.106341	240.379104	783.977999	 84.490663	198.042963	779.787321	 86.137206	201.054222	748.646315	 85.779463	243.597526	752.527959	 83.941406	221.365105	512.042518	128.413266	240.442760	493.534681	224.774437	223.833917	447.683129	402.166422	105.405428	422.791762	441.883550	144.847279	413.485182	457.403855	137.291480	383.879178	458.565260	 97.539760	393.297622	443.408594	109.267468	126.684147	427.042366	146.637405	131.593824	347.409100	238.559337	441.876315	175.994868	157.559922	423.638070	110.703555	117.630958	430.685739	127.331326	111.391093	401.305219	125.900746	150.142192	394.141157	108.414131	116.744206	121.369110	143.987576	156.316351	124.375655	218.428510	276.155226	 57.409309	391.323888	215.763964	 51.436913	488.355500	 62.258717	 68.774498	357.670062	155.923108	 61.178692	460.654395	301.630878	 52.661958	164.173350	242.100421	 49.940396	 63.164522	 81.284265	 64.703113	209.151129	169.083392	 64.102033	 99.349670	218.935565	961.797595	367.155015	227.903028	956.776917	188.702591	223.419297	959.287256	277.928803	193.276128	1049.112895	271.956537	285.265888	1028.734378	280.865400	101.286369	1069.491412	263.047675	201.337334	510.340447	394.871795	208.846527	492.714487	176.593851	127.952436	129.138986	387.225733	136.530279	122.872383	181.208043	276.155226	  0.000000	391.323888	301.630878	  0.000000	164.173350	215.763964	  0.000000	488.355500	242.100421	  0.000000	 63.164522	 62.258717	  0.000000	357.670062	 81.284265	  0.000000	209.151129	245.959595	  0.000000	439.839694	271.865650	  0.000000	113.668936	127.952436	  0.000000	387.225733	136.530279	  0.000000	181.208043	158.697004	1465.056496	443.709708	198.364893	1458.804561	 77.651619	142.372386	1223.928741	579.736739	167.258788	1212.861132	-33.805757	145.457991	1096.337902	807.951427	223.759754	1114.294377	-274.432617
86	  0.755556	344.758691	1788.529733	320.172147	156.220974	1756.240025	374.565019	239.408909	1756.166379	180.694200	105.260380	1693.591007	267.222081	216.898132	1857.614363	286.945361	107.946932	1327.771171	513.076168	114.858732	1350.471360	547.803609	113.786496	1327.158289	563.386835	106.732367	1303.542516	528.449394	105.649347	1237.125170	596.673199	179.083519	1210.672782	562.749462	106.939867	1140.006156	698.353275	142.949565	1115.459490	676.241832	147.408059	1101.350388	700.051767	111.058822	1125.144906	721.016021	162.275242	1127.635782	824.270951	128.668099	1064.880645	791.521744	176.974240	1126.915143	889.463988	113.584830	1060.180554	889.497008	123.263819	1024.651841	859.541704	187.709852	1340.053512	-37.257860	150.589745	1334.430313	-18.605453	148.242347	1310.169809	-31.584701	184.762194	1315.366203	-51.192491	142.481308	1229.080820	-60.538511	191.968094	1196.620733	 -7.081172	158.377866	1170.734976	-172.575382	168.946130	1130.029534	-147.250698	177.369125	1117.421403	-170.882751	166.977217	1157.837787	-196.008921	239.349194	1147.971657	-288.456666	208.082923	1080.641787	-260.438507	287.840649	1139.358106	-351.687973	222.084284	1078.452725	-375.984421	225.861263	1037.870299	-349.383847	315.000539	1295.258038	278.014897	275.743498	1491.298254	279.643833	158.674029	1534.047385	443.727254	198.301580	1527.793713	 77.660281	138.088543	1554.392601	275.529407	 93.530183	1362.529828	272.251847	278.463361	1032.537363	416.051455	292.052545	1024.934008	145.688454	 99.114572	1066.744243	323.156397	103.440121	1072.235319	202.950128	205.140389	950.623529	464.444842	185.406046	779.251984	470.641846	228.042566	776.506019	475.370501	226.056244	746.100365	474.967683	183.314520	747.586192	470.811123	193.844535	521.994047	440.182817	229.993514	496.057316	349.562796	207.530498	923.317328	 89.111518	240.363333	783.977423	 84.492677	198.026786	779.788281	 86.137088	201.037333	748.647008	 85.779254	243.580176	752.527282	 83.942910	221.350772	512.042018	128.416187	240.433089	493.533557	224.776752	223.826348	447.683044	402.167807	105.397817	422.788791	441.883166	144.839677	413.483416	457.404388	137.284505	383.876920	458.564308	 97.532624	393.294511	443.407885	109.265584	126.681724	427.041789	146.634843	131.592866	347.409005	238.547725	441.876732	175.996925	157.547752	423.636759	110.706403	117.618335	430.683474	127.333024	111.379317	401.302611	125.903148	150.130853	394.139366	108.417703	116.741171	121.368091	143.987907	156.315135	124.374453	218.429256	276.153062	 57.409492	391.324128	215.763294	 51.436534	488.355140	 62.256681	 68.773895	357.670204	155.922120	 61.177369	460.654136	301.629695	 52.662416	164.173609	242.099127	 49.940827	 63.164961	 81.282641	 64.700662	209.150850	169.081296	 64.102373	 99.349891	218.927524	961.796006	367.159642	227.897119	956.777382	188.705486	223.412321	959.286694	277.932564	193.267650	1049.112733	271.961608	285.257953	1028.735685	280.869955	101.277347	1069.489781	263.053262	201.328036	510.339490	394.872807	208.833358	492.714193	176.596469	127.950214	129.137295	387.225397	136.528153	122.871272	181.208581	276.153062	  0.000000	391.324128	301.629695	  0.000000	164.173609	215.763294	  0.000000	488.355140	242.099127	  0.000000	 63.164961	 62.256681	  0.000000	357.670204	 81.282641	  0.000000	209.150850	245.958178	  0.000000	439.839634	271.864411	  0.000000	113.669285	127.950214	  0.000000	387.225397	136.528153	  0.000000	181.208581	158.674029	1465.047385	443.727254	198.301580	1458.793713	 77.660281	142.366433	1223.898976	579.711330	167.224701	1212.850777	-33.809842	145.471670	1096.258214	807.896348	223.716058	1114.306722	-274.447587
87	  0.764444	344.743156	1788.508013	320.212286	156.200580	1756.233594	374.593845	239.392993	1756.179282	180.726949	105.233334	1693.608280	267.240432	216.893424	1857.612341	286.989038	107.934709	1327.749484	513.070282	114.849089	1350.444561	547.800224	113.778874	1327.128378	563.380020	106.722548	1303.518844	528.439891	105.647059	1237.090742	596.652794	179.079056	1210.644662	562.715794	106.945595	1139.946887	698.308060	142.953480	1115.407041	676.187144	147.414568	1101.291073	699.993693	111.067076	1125.079826	720.967591	162.294242	1127.544393	824.219451	128.683275	1064.799441	791.455105	176.997085	1126.807893	889.409243	113.609367	1060.071548	889.429701	123.285014	1024.550138	859.464298	187.650898	1340.048686	-37.273246	150.541656	1334.413922	-18.598121	148.196214	1310.154347	-31.577915	184.713460	1315.356870	-51.187334	142.442673	1229.065798	-60.535472	191.939216	1196.609493	 -7.085298	158.353724	1170.734050	-172.562776	168.914518	1130.024817	-147.255897	177.335157	1117.418606	-170.890026	166.954891	1157.855322	-195.993986	239.300833	1147.984718	-288.467109	208.045176	1080.648569	-260.450867	287.787210	1139.382774	-351.702273	222.035261	1078.470298	-375.996747	225.817796	1037.886960	-349.402939	314.975395	1295.259897	278.017085	275.700194	1491.293560	279.646082	158.650162	1534.038197	443.745922	198.235806	1527.781319	 77.671238	138.049624	1554.386598	275.544278	 93.447305	1362.481751	272.245023	278.453993	1032.536418	416.058484	292.047299	1024.937290	145.692772	 99.105482	1066.741644	323.160691	103.432570	1072.233360	202.954588	205.128973	950.621850	464.449967	185.390922	779.249856	470.641442	228.027379	776.504341	475.372537	226.040659	746.098729	474.968372	183.299064	747.584382	470.812410	193.835030	521.991988	440.183558	229.985029	496.056239	349.564231	207.521943	923.317768	 89.116297	240.349161	783.977027	 84.494265	198.012059	779.789556	 86.135968	201.021898	748.647932	 85.777997	243.564428	752.526776	 83.943981	221.336997	512.041528	128.419075	240.424027	493.532507	224.778791	223.818843	447.682649	402.169261	105.390286	422.785681	441.882632	144.832174	413.481635	457.404850	137.277434	383.874378	458.563189	 97.525551	393.291349	443.407053	109.263330	126.679255	427.041146	146.632136	131.592173	347.409084	238.536782	441.877241	175.998814	157.536085	423.635562	110.708903	117.606221	430.681258	127.334411	111.368051	401.300124	125.905127	150.120226	394.137693	108.421051	116.738074	121.367172	143.988242	156.313454	124.373235	218.429979	276.150832	 57.409758	391.324504	215.762229	 51.436220	488.354942	 62.254563	 68.773206	357.670240	155.920623	 61.176034	460.653906	301.628696	 52.663122	164.174067	242.097810	 49.941420	 63.165481	 81.280589	 64.697678	209.150233	169.079270	 64.102987	 99.350161	218.920054	961.793736	367.164484	227.892369	956.777901	188.708538	223.406211	959.285819	277.936511	193.259836	1049.112178	271.966634	285.250646	1028.736854	280.875628	101.269026	1069.487502	263.057639	201.319097	510.338207	394.873895	208.820687	492.714144	176.598933	127.947733	129.135714	387.225115	136.525764	122.870204	181.209110	276.150832	  0.000000	391.324504	301.628696	  0.000000	164.174067	215.762229	  0.000000	488.354942	242.097810	  0.000000	 63.165481	 62.254563	  0.000000	357.670240	 81.280589	  0.000000	209.150233	245.956530	  0.000000	439.839723	271.863253	  0.000000	113.669774	127.947733	  0.000000	387.225115	136.525764	  0.000000	181.209110	158.650162	1465.038197	443.745922	198.235806	1458.781319	 77.671238	142.363058	1223.867702	579.684294	167.190944	1212.837646	-33.810385	145.488758	1096.171917	807.837278	223.673005	1114.316644	-274.458988
88	  0.773333	344.728261	1788.485706	320.247139	156.180323	1756.230378	374.618881	239.377104	1756.188709	180.755918	105.205937	1693.625800	267.257111	216.889937	1857.610285	287.026315	107.925009	1327.725336	513.062054	114.839675	1350.415127	547.794919	113.771301	1327.095768	563.371044	106.715517	1303.492445	528.427656	105.646616	1237.053403	596.630538	179.077431	1210.615389	562.681299	106.953096	1139.883384	698.259178	142.959628	1115.350929	676.128579	147.423563	1101.227942	699.931447	111.077130	1125.010158	720.915182	162.316073	1127.446563	824.165395	128.700405	1064.712227	791.383827	177.022637	1126.691546	889.351327	113.636801	1059.953553	889.357670	123.308781	1024.440627	859.380937	187.591652	1340.042278	-37.287476	150.493702	1334.395780	-18.588579	148.150424	1310.136925	-31.568519	184.665393	1315.345317	-51.179027	142.404353	1229.048203	-60.528260	191.910992	1196.596821	 -7.084870	158.337486	1170.731574	-172.539441	168.884319	1130.017248	-147.256054	177.302774	1117.412944	-170.892289	166.941272	1157.878925	-195.966406	239.252015	1147.995482	-288.473337	208.008973	1080.652476	-260.458074	287.732078	1139.406249	-351.713128	221.985451	1078.484747	-376.004489	225.775766	1037.900584	-349.417596	314.950573	1295.261729	278.021663	275.656378	1491.288402	279.649513	158.625583	1534.028379	443.765777	198.168874	1527.768569	 77.683955	138.010343	1554.380043	275.560088	 93.362559	1362.429667	272.242765	278.444975	1032.535010	416.066153	292.042756	1024.941044	145.697931	 99.097009	1066.738114	323.164156	103.425568	1072.231089	202.958279	205.117780	950.619859	464.455289	185.375555	779.247570	470.639911	228.011830	776.502435	475.374176	226.024621	746.096890	474.968829	183.283249	747.582439	470.812554	193.826105	521.989694	440.184419	229.977375	496.055126	349.565999	207.515258	923.318540	 89.120799	240.337118	783.976832	 84.495496	197.999397	779.790986	 86.134152	201.008617	748.648968	 85.775993	243.551001	752.526526	 83.944700	221.324089	512.041127	128.421878	240.415547	493.531584	224.780510	223.811805	447.682035	402.170793	105.383233	422.782579	441.882244	144.825192	413.479844	457.405405	137.270787	383.871662	458.562101	 97.518936	393.288236	443.406423	109.260862	126.676853	427.040502	146.629364	131.591770	347.409272	238.526793	441.877797	176.000539	157.525207	423.634454	110.711117	117.594891	430.679118	127.335473	111.357567	401.297781	125.906679	150.110564	394.136185	108.424082	116.735061	121.366324	143.988525	156.311473	124.372061	218.430594	276.148749	 57.410156	391.325002	215.760873	 51.435991	488.354859	 62.252525	 68.772455	357.670158	155.918786	 61.174757	460.653724	301.627973	 52.664023	164.174599	242.096571	 49.942096	 63.166026	 81.278402	 64.694615	209.149337	169.077327	 64.103868	 99.350351	218.913292	961.791032	367.169348	227.888561	956.778605	188.711746	223.400927	959.284818	277.940547	193.252577	1049.111314	271.971630	285.243866	1028.738027	280.882042	101.261288	1069.484601	263.061217	201.310881	510.336697	394.875209	208.808751	492.714340	176.601194	127.945113	129.134312	387.224887	136.523267	122.869192	181.209560	276.148749	  0.000000	391.325002	301.627973	  0.000000	164.174599	215.760873	  0.000000	488.354859	242.096571	  0.000000	 63.166026	 62.252525	  0.000000	357.670158	 81.278402	  0.000000	209.149337	245.954811	  0.000000	439.839930	271.862272	  0.000000	113.670313	127.945113	  0.000000	387.224887	136.523267	  0.000000	181.209560	158.625583	1465.028379	443.765777	198.168874	1458.768569	 77.683955	142.362023	1223.834396	579.655919	167.157673	1212.822512	-33.806565	145.508239	1096.079395	807.774611	223.630494	1114.323979	-274.465706
